/* XPM */
static char * rott_xpm[] = {
"32 29 35 1",
" 	c None",
".	c #240000",
"+	c #242424",
"@	c #926D6D",
"#	c #000000",
"$	c #6D4949",
"%	c #926D49",
"&	c #494924",
"*	c #6D6D49",
"=	c #494949",
"-	c #49496D",
";	c #92926D",
">	c #242449",
",	c #49246D",
"'	c #494992",
")	c #242492",
"!	c #492424",
"~	c #242400",
"{	c #6D4900",
"]	c #24246D",
"^	c #924900",
"/	c #926D00",
"(	c #492449",
"_	c #6D4924",
":	c #B69200",
"<	c #929200",
"[	c #B6B600",
"}	c #494900",
"|	c #000049",
"1	c #240024",
"2	c #002449",
"3	c #492400",
"4	c #000024",
"5	c #6D6D00",
"6	c #B6DB00",
"               ..               ",
"              +@@.              ",
"             #$%@&              ",
"             +*+=&.             ",
"            #**+-*=             ",
"            &;+>>=%+            ",
"           .@$>>+,*$#           ",
"          #=%>'&+)=@!           ",
"          ~;=>,{&]>$*#          ",
"         #&@>'>^{>]=%!          ",
"         +@=])=^{>]]=*.         ",
"        #$@>']!//+]](*&#        ",
"        +%+)]]_:<!]>]=%~        ",
"       .*=>)]]{[:}|]>>$&#       ",
"       &@>)]]({[[{>]>|=$+       ",
"      .@=]])]+^</{12||>$$#      ",
"     #=@>]]]]>3{{!|||||($+      ",
"     ~@(]])]]>]|||]||||>&&#     ",
"    #$$>]]2>>]]>]>|+>|||=$!     ",
"    +@+|]>+{^!||>|}{}4|||&$~    ",
"   #$$|]]+{:<{1||+{/5}1||+&!    ",
"   !*+]>+{:6[^~||!{<<5}1||!&.   ",
"  #$&||({/:/{34||+3}{5{}141&!#  ",
"  !$12!/{{3+4||||||4+33}}14+&+# ",
" .*+|!}!+|||||||||||4441~3#4&&. ",
"#&$1111||||||||4||44444444#4+&+ ",
"~$!$$=======&=&&&&&&!!&&!!!!!&&#",
"~$$$$*$*$%$*$$$$$$$$$&$$$&$&&&&.",
" .....~...####~~.........#.###. "};
