/* XPM */
static char *rott[] = {
/* columns rows colors chars-per-pixel */
"32 32 116 2 ",
"   c #030202",
".  c #0B0B05",
"X  c #060609",
"o  c #09070A",
"O  c #0C0A0B",
"+  c #100E05",
"@  c #180D00",
"#  c #110E0E",
"$  c #13110D",
"%  c #0B0712",
"&  c #0C0A12",
"*  c #060618",
"=  c #0D0C1B",
"-  c #110D16",
";  c #100F1C",
":  c #141113",
">  c #1A1513",
",  c #1C1A11",
"<  c #251604",
"1  c #2A1B04",
"2  c #3E1F02",
"3  c #201C14",
"4  c #251E18",
"5  c #291F1A",
"6  c #272206",
"7  c #2D2504",
"8  c #313204",
"9  c #242014",
"0  c #2D2B16",
"q  c #272018",
"w  c #2A201A",
"e  c #342B1F",
"r  c #3C3A1F",
"t  c #0A0A24",
"y  c #0D0D2B",
"u  c #110F22",
"i  c #131224",
"p  c #14132B",
"a  c #18152A",
"s  c #0C0C34",
"d  c #0F0F39",
"f  c #141434",
"g  c #181837",
"h  c #12123C",
"j  c #19193C",
"k  c #312521",
"l  c #352921",
"z  c #3A2D24",
"x  c #3D3324",
"c  c #422D02",
"v  c #542A01",
"b  c #433502",
"n  c #553301",
"m  c #7C3F00",
"M  c #433C25",
"N  c #433329",
"B  c #4A3A2D",
"V  c #4E3D30",
"C  c #533E34",
"Z  c #444103",
"A  c #5A4901",
"S  c #644F01",
"D  c #6F4F00",
"F  c #615201",
"G  c #695600",
"H  c #695800",
"J  c #6C6300",
"K  c #746500",
"L  c #7A7000",
"P  c #7E7F00",
"I  c #474225",
"U  c #494327",
"Y  c #4C4927",
"T  c #4D422B",
"R  c #4E4929",
"E  c #50422F",
"W  c #52492D",
"Q  c #554134",
"!  c #564931",
"~  c #594934",
"^  c #63493F",
"/  c #151543",
"(  c #1C1C44",
")  c #1B1B4C",
"_  c #1F1F51",
"`  c #20204D",
"'  c #222254",
"]  c #25255B",
"[  c #28285B",
"{  c #292963",
"}  c #2E2E69",
"|  c #895600",
" . c #845E00",
".. c #965A00",
"X. c #996200",
"o. c #9B6E00",
"O. c #947400",
"+. c #9C7300",
"@. c #9C7A00",
"#. c #7B8300",
"$. c #9D8B00",
"%. c #A08200",
"&. c #A28A00",
"*. c #A49300",
"=. c #A79C00",
"-. c #A2A200",
";. c #A9A300",
":. c #AAAA00",
">. c #A3B200",
",. c #ADB400",
"<. c #ACBA00",
"1. c #A7C500",
"2. c #AFC000",
"3. c #B0C300",
"4. c #B6DB00",
"5. c None",
/* pixels */
"5.5.5.5.5.5.5.5.5.5.5.5.5.5.      5.5.5.5.5.5.5.5.5.5.5.5.5.5.5.",
"5.5.5.5.5.5.5.5.5.5.5.5.5.X 5 ^ 5   5.5.5.5.5.5.5.5.5.5.5.5.5.5.",
"5.5.5.5.5.5.5.5.5.5.5.5.5.  C > C   5.5.5.5.5.5.5.5.5.5.5.5.5.5.",
"5.5.5.5.5.5.5.5.5.5.5.5.  5 k X k w   5.5.5.5.5.5.5.5.5.5.5.5.5.",
"5.5.5.5.5.5.5.5.5.5.5.5.  C   [ X C   5.5.5.5.5.5.5.5.5.5.5.5.5.",
"5.5.5.5.5.5.5.5.5.5.5.  5 k a i a k 5   5.5.5.5.5.5.5.5.5.5.5.5.",
"5.5.5.5.5.5.5.5.5.5.5.  C O (   j X C   5.5.5.5.5.5.5.5.5.5.5.5.",
"5.5.5.5.5.5.5.5.5.5.X 5 l i a @ a i l q   5.5.5.5.5.5.5.5.5.5.5.",
"5.5.5.5.5.5.5.5.5.5.  Q . [ o D . ' o E   5.5.5.5.5.5.5.5.5.5.5.",
"5.5.5.5.5.5.5.5.5.X 5 z u [ + &.+ [ ; l w   5.5.5.5.5.5.5.5.5.5.",
"5.5.5.5.5.5.5.5.5.  Q O [ j b ;.Z g ' X Q   5.5.5.5.5.5.5.5.5.5.",
"5.5.5.5.5.5.5.5.X 5 z ; } - K ,.#.: ] - x q   5.5.5.5.5.5.5.5.5.",
"5.5.5.5.5.5.5.5.  Q O ' {   &.3.<.X ] ( O E   5.5.5.5.5.5.5.5.5.",
"5.5.5.5.5.5.5.  5 N - } ` < *.,.,.6 j [ & x q   5.5.5.5.5.5.5.5.",
"5.5.5.5.5.5.5.  Q # ` { a n %.=.;.A i ' j o E   5.5.5.5.5.5.5.5.",
"5.5.5.5.5.5.  w N - { { o m o.&.&. .o ' ' O N w   5.5.5.5.5.5.5.",
"5.5.5.5.5.5.  Q # ) { { & v ..o.o.n & ' _ h O E   5.5.5.5.5.5.5.",
"5.5.5.5.5.  w N & { { { '           ) _ _ _ o x q   5.5.5.5.5.5.",
"5.5.5.5.5.X Q : ( { { ] { ] ] ' ' _ _ _ ) ) f $ E   5.5.5.5.5.5.",
"5.5.5.5.  w B o { [ ] { ] ' ' ' ' _ _ _ ) ) ) o r q   5.5.5.5.5.",
"5.5.5.5.  Q > j [ '         _ ' )         h ) y $ T   5.5.5.5.5.",
"5.5.5.X 5 V X { ] & S &.@.c i _ u 2 X.o.S O / / o M 9   5.5.5.5.",
"5.5.5.  Q > j [ p 8 ,.:.*.O.  _   | @.*.;.8 u / y , U   5.5.5.5.",
"5.5.  w V . ] ( . >.4.<.;.&.  _   X.%.=.<.1.. y h   I 9   5.5.5.",
"5.5.  Q 3 a ' O L :.,.;.J 7 X )   1 S $.;.,.P . d t , U   5.5.5.",
"5.  q C X ] ; c O.G 7 X & f / ) ) y &   6 H @.b & s   I 9   5.5.",
"5.  Q 4 f g   <   - f ) _ ) ) ) ) / / / y O   <   t * , U   5.5.",
"X w E X ] ; - f _ _ _ ) ) ) / ) / / / / / h d t O % s   I 9   5.",
"  B 5 p ' ' ' ' _ _ ) ) ) ) / / / / / / h d d d s s s * , r   5.",
"5.$ #                                                   $ $ 5.5.",
"5.  e ~ ~ ! ! ~ ! ! ! ! W ! W W W W T W T R R R U R Y Y 0   5.5.",
"5.5.                                                      5.5.5."
};
